<svg width="70" height="70" viewBox="0 0 70 70" fill="none" xmlns="http://www.w3.org/2000/svg">
<path d="M35 41.5625V26.25" stroke="#CDBD4B" stroke-width="2" stroke-miterlimit="10" stroke-linecap="round" stroke-linejoin="round"/>
<path d="M41.5625 41.5625V26.25" stroke="#CDBD4B" stroke-width="2" stroke-miterlimit="10" stroke-linecap="round" stroke-linejoin="round"/>
<path d="M48.125 41.5625V28.4375" stroke="#CDBD4B" stroke-width="2" stroke-miterlimit="10" stroke-linecap="round" stroke-linejoin="round"/>
<path d="M50.3125 63.4375C53.1562 56.2188 54.6875 48.5625 54.6875 40.6875V29.5312C54.6875 27.7812 53.1562 26.25 51.4062 26.25C49.6562 26.25 48.125 27.7812 48.125 29.5312V27.3438C48.125 25.5937 46.5937 24.0625 44.8437 24.0625C43.0937 24.0625 41.5625 25.5937 41.5625 27.3438V25.1562C41.5625 23.4062 40.0312 21.875 38.2812 21.875C36.5312 21.875 35 23.4062 35 25.1562V27.3438C35 25.5937 33.4687 24.0625 31.7187 24.0625C29.9687 24.0625 28.4375 25.5937 28.4375 27.3438V43.75V49L22.9687 43.5312C21.6562 42.2187 19.6875 42 18.375 43.0938C16.625 44.4063 16.4062 47.0313 17.9375 48.5625L32.8125 63.4375" stroke="#CDBD4B" stroke-width="2" stroke-miterlimit="10" stroke-linecap="round" stroke-linejoin="round"/>
<path d="M51.8438 59.0625C60.5938 59.5 67.8125 52.5 67.8125 43.75C67.8125 41.125 67.1563 38.7188 66.0625 36.5313C64.3125 33.25 64.0938 29.5313 65.1875 26.25C65.8438 24.0625 66.0625 21.875 65.625 19.4688C64.5313 13.125 59.5 8.09376 53.1563 7.00001C49.6563 6.34376 46.1563 7.00001 43.3125 8.53126C39.375 10.2813 35 10.7188 30.8438 9.40626C28.6563 8.75001 26.0313 8.53126 23.4063 8.96876C17.2813 10.0625 12.25 15.0938 11.1563 21.2188V21.4375C10.0625 28.2188 7.65627 34.5625 4.15627 40.6875C2.40627 43.75 1.75002 47.25 2.40627 50.9688C3.50002 57.0938 8.31252 62.125 14.4375 63.2188C19.9063 64.3125 24.9375 62.5625 28.4375 59.0625" stroke="#CDBD4B" stroke-width="2" stroke-miterlimit="10" stroke-linecap="round" stroke-linejoin="round"/>
</svg>
