<svg width="75" height="75" viewBox="0 0 75 75" fill="none" xmlns="http://www.w3.org/2000/svg">
<path d="M45 21V15H52.5V9H31.5V15H39V21" stroke="#2482C7" stroke-width="2" stroke-miterlimit="10" stroke-linejoin="round"/>
<path d="M13.5 40.5H7.5V31.5H1.5V55.5H7.5V46.5H13.5" stroke="#2482C7" stroke-width="2" stroke-miterlimit="10" stroke-linejoin="round"/>
<path d="M67.5 30V37.5H63V25.2645C63 23.739 61.7835 22.5 60.2865 22.5H29.985C29.2665 22.5 28.5735 22.7925 28.065 23.313L21 31.5H16.5C15 31.5 13.5 33 13.5 34.5V52.5C13.5 54.027 15.003 55.5 16.5 55.5H21L28.068 63.6915C28.5765 64.209 29.2665 64.5 29.985 64.5H49.2675C49.986 64.5 50.676 64.209 51.1845 63.6915L62.2035 52.4685C62.715 51.9495 62.9985 51.2475 62.9985 50.514V46.5H67.4985V54H73.4985V30H67.5Z" stroke="#2482C7" stroke-width="2.0077" stroke-miterlimit="10" stroke-linecap="round" stroke-linejoin="round"/>
<path d="M48 42L36 58.5L40.5 45H33L40.5 30H48L40.5 42H48Z" fill="#2482C7"/>
</svg>
