<svg width="70" height="70" viewBox="0 0 70 70" fill="none" xmlns="http://www.w3.org/2000/svg">
<path d="M42 19.6V14H49V8.39999H29.4V14H36.4V19.6" stroke="#CDBD4B" stroke-width="2" stroke-miterlimit="10" stroke-linejoin="round"/>
<path d="M12.6 37.8H7V29.4H1.4V51.8H7V43.4H12.6" stroke="#CDBD4B" stroke-width="2" stroke-miterlimit="10" stroke-linejoin="round"/>
<path d="M63 28V35H58.8V23.5802C58.8 22.1564 57.6646 21 56.2674 21H27.986C27.3154 21 26.6686 21.273 26.194 21.7588L19.6 29.4H15.4C14 29.4 12.6 30.8 12.6 32.2V49C12.6 50.4252 14.0028 51.8 15.4 51.8H19.6L26.1968 59.4454C26.6714 59.9284 27.3154 60.2 27.986 60.2H45.983C46.6536 60.2 47.2976 59.9284 47.7722 59.4454L58.0566 48.9706C58.534 48.4862 58.7986 47.831 58.7986 47.1464V43.4H62.9986V50.4H68.5986V28H63Z" stroke="#CDBD4B" stroke-width="2.0077" stroke-miterlimit="10" stroke-linecap="round" stroke-linejoin="round"/>
<path d="M44.8 39.2L33.6 54.6L37.8 42H30.8L37.8 28H44.8L37.8 39.2H44.8Z" fill="#CDBD4B"/>
</svg>
