<svg width="51" height="64" viewBox="0 0 51 64" fill="none" xmlns="http://www.w3.org/2000/svg">
<path d="M27.5312 2L25.5 0.25L23.4688 2C22.375 2.8125 0.5 21.875 0.5 38.75C0.5 45.3804 3.13392 51.7393 7.82233 56.4277C12.5107 61.1161 18.8696 63.75 25.5 63.75C32.1304 63.75 38.4893 61.1161 43.1777 56.4277C47.8661 51.7393 50.5 45.3804 50.5 38.75C50.5 21.875 28.625 2.8125 27.5312 2ZM32.4687 52.7187L29.6875 47.125C31.2441 46.3479 32.5538 45.1529 33.47 43.6738C34.3861 42.1947 34.8726 40.4898 34.875 38.75H41.125C41.122 41.6526 40.3105 44.497 38.7816 46.9643C37.2527 49.4316 35.0667 51.4242 32.4687 52.7187Z" fill="#CDBD4B"/>
</svg>
