<svg width="75" height="75" viewBox="0 0 75 75" fill="none" xmlns="http://www.w3.org/2000/svg">
<path d="M48.75 67.5H52.5V75H0V67.5H3.75V7.5C3.75 3.375 7.125 0 11.25 0H41.25C43.2391 0 45.1468 0.790176 46.5533 2.1967C47.9598 3.60322 48.75 5.51088 48.75 7.5V67.5ZM11.25 7.5V30H41.25V7.5H11.25ZM48.75 37.5H52.5C54.4891 37.5 56.3968 38.2902 57.8033 39.6967C59.2098 41.1032 60 43.0109 60 45V56.25C60 57.2446 60.3951 58.1984 61.0983 58.9016C61.8016 59.6049 62.7554 60 63.75 60C64.7446 60 65.6984 59.6049 66.4017 58.9016C67.1049 58.1984 67.5 57.2446 67.5 56.25V37.5L60 30V22.5L52.5 15L56.25 11.25L75 30V56.25C75 59.2337 73.8147 62.0952 71.705 64.205C69.5952 66.3147 66.7337 67.5 63.75 67.5C60.7663 67.5 57.9048 66.3147 55.795 64.205C53.6853 62.0952 52.5 59.2337 52.5 56.25V45H48.75V37.5Z" fill="#2482C7"/>
</svg>
