<svg width="35" height="35" viewBox="0 0 35 35" fill="none" xmlns="http://www.w3.org/2000/svg">
<path d="M17.5 2.56668C13.4443 2.56668 12.9358 2.58387 11.343 2.65655C9.75352 2.7291 8.66796 2.98151 7.71804 3.35069C6.73604 3.73232 5.90325 4.24294 5.07306 5.07312C4.24288 5.90331 3.73226 6.7361 3.35063 7.7181C2.98145 8.66796 2.72904 9.75352 2.65649 11.343C2.58381 12.9358 2.56668 13.4443 2.56668 17.5C2.56668 21.5556 2.58381 22.0641 2.65649 23.6569C2.72904 25.2464 2.98145 26.332 3.35063 27.2818C3.73226 28.2638 4.24288 29.0966 5.07306 29.9269C5.90325 30.757 6.73604 31.2677 7.71804 31.6493C8.66796 32.0184 9.75352 32.2709 11.343 32.3434C12.9358 32.4161 13.4443 32.4332 17.5 32.4332C21.5556 32.4332 22.0641 32.4161 23.6569 32.3434C25.2464 32.2709 26.332 32.0184 27.2818 31.6493C28.2638 31.2677 29.0966 30.757 29.9269 29.9269C30.757 29.0966 31.2677 28.2638 31.6493 27.2818C32.0184 26.332 32.2709 25.2464 32.3434 23.6569C32.4161 22.0641 32.4332 21.5556 32.4332 17.5C32.4332 13.4443 32.4161 12.9358 32.3434 11.343C32.2709 9.75352 32.0184 8.66796 31.6493 7.7181C31.2677 6.7361 30.757 5.90331 29.9269 5.07312C29.0966 4.24294 28.2638 3.73232 27.2818 3.35069C26.332 2.98151 25.2464 2.7291 23.6569 2.65655C22.0641 2.58387 21.5556 2.56668 17.5 2.56668ZM17.5 5.25742C21.4873 5.25742 21.9596 5.27259 23.5343 5.34444C24.9903 5.41089 25.781 5.65416 26.3072 5.85861C27.0042 6.12951 27.5017 6.45317 28.0242 6.9757C28.5468 7.49823 28.8704 7.99575 29.1413 8.69274C29.3458 9.21895 29.5891 10.0097 29.6555 11.4656C29.7273 13.0403 29.7426 13.5126 29.7426 17.5C29.7426 21.4873 29.7273 21.9596 29.6555 23.5343C29.5891 24.9903 29.3458 25.781 29.1413 26.3072C28.8704 27.0042 28.5468 27.5017 28.0242 28.0242C27.5017 28.5468 27.0042 28.8704 26.3072 29.1413C25.781 29.3458 24.9903 29.5891 23.5343 29.6555C21.9599 29.7273 21.4876 29.7426 17.5 29.7426C13.5123 29.7426 13.0401 29.7273 11.4656 29.6555C10.0097 29.5891 9.21895 29.3458 8.69274 29.1413C7.99569 28.8704 7.49823 28.5468 6.97564 28.0242C6.45311 27.5017 6.12945 27.0042 5.85861 26.3072C5.6541 25.781 5.41083 24.9903 5.34438 23.5343C5.27253 21.9596 5.25736 21.4873 5.25736 17.5C5.25736 13.5126 5.27253 13.0403 5.34438 11.4656C5.41083 10.0097 5.6541 9.21895 5.85861 8.69274C6.12945 7.99575 6.45311 7.49823 6.97564 6.9757C7.49823 6.45317 7.99569 6.12951 8.69274 5.85861C9.21895 5.65416 10.0097 5.41089 11.4656 5.34444C13.0403 5.27259 13.5126 5.25742 17.5 5.25742Z" fill="#CDBD4B"/>
<path d="M17.5005 22.4777C14.7513 22.4777 12.5227 20.2491 12.5227 17.4999C12.5227 14.7507 14.7513 12.5221 17.5005 12.5221C20.2496 12.5221 22.4782 14.7507 22.4782 17.4999C22.4782 20.2491 20.2496 22.4777 17.5005 22.4777ZM17.5005 9.83147C13.2652 9.83147 9.83199 13.2647 9.83199 17.4999C9.83199 21.7351 13.2652 25.1683 17.5005 25.1683C21.7356 25.1683 25.1689 21.7351 25.1689 17.4999C25.1689 13.2647 21.7356 9.83147 17.5005 9.83147Z" fill="#CDBD4B"/>
<path d="M27.2631 9.52833C27.2631 10.518 26.4607 11.3203 25.471 11.3203C24.4814 11.3203 23.6791 10.518 23.6791 9.52833C23.6791 8.53862 24.4814 7.73636 25.471 7.73636C26.4607 7.73636 27.2631 8.53862 27.2631 9.52833Z" fill="#CDBD4B"/>
</svg>
