<svg width="35" height="22" viewBox="0 0 35 22" fill="none" xmlns="http://www.w3.org/2000/svg">
<path d="M32.8125 21.9453H28.2188C27.6719 21.9453 27.125 21.6172 26.7969 21.1797L26.3594 20.4688C26.0859 20.1406 23.5703 17.2422 22.0391 16.3125C21.4375 15.9844 21.2188 16.0391 21.2188 16.0391C21.2188 16.0391 21.1641 16.2031 21.1641 16.2578V19.1563C21.1641 20.6875 19.9063 21.8906 18.4297 21.8906H17.3359C17.0625 21.8906 10.9375 21.7813 6.07032 14.5078C2.24219 8.82031 0.984379 5.10156 0.546879 2.96875C0.437504 2.47656 0.601566 1.98438 0.875004 1.60156C1.20313 1.21875 1.64063 1 2.13282 1H6.01563C6.72657 1 7.32813 1.4375 7.54688 2.14844C7.98438 3.40625 9.07813 6.63281 10.3906 8.71094C12.3047 11.8828 13.0703 12.1563 13.2891 12.1563C13.4531 11.8828 13.3984 10.7891 13.3984 10.0781C13.3984 9.75 13.3984 9.47656 13.3984 9.14844C13.3984 8.92969 13.3984 8.65625 13.3984 8.38281C13.3984 7.01563 13.4531 5.15625 12.9063 4.28125L11.8125 2.69531C11.5938 2.36719 11.5391 1.92969 11.7578 1.54688C11.9219 1.16406 12.3047 0.945312 12.7422 0.945312H18.9766C19.9063 0.945312 20.6172 1.71094 20.6172 2.58594V10.4609C20.6172 10.5156 20.6719 10.5703 20.6719 10.5703C20.6719 10.5703 20.8906 10.5703 21.4922 10.0234C22.75 8.76562 24.3359 6.41406 25.9219 3.1875L26.4688 1.92969C26.7422 1.32813 27.3438 0.945312 28 0.945312H32.0469C32.5938 0.945312 33.0859 1.21875 33.4141 1.65625C33.7422 2.09375 33.7969 2.69531 33.5781 3.1875L33.1406 4.33594V4.39063C33.0859 4.5 31.6094 7.39844 30.0781 9.53125C28.875 11.1719 28.3828 11.9375 28.4922 12.2109C28.6016 12.375 29.3125 13.1953 30.0234 13.8516C31.3359 15.2188 32.9766 16.9688 33.5781 18.1172C33.8516 18.6094 34.125 19.0469 34.2891 19.4297C34.5625 19.9219 34.5625 20.5234 34.2344 21.0703C33.9063 21.6719 33.4141 21.9453 32.8125 21.9453ZM21.3281 14.9453C21.7109 14.9453 22.1484 15.1094 22.6406 15.3828C24.4453 16.4219 27.1797 19.6484 27.2891 19.8125L27.3438 19.8672L27.7813 20.5781C27.8906 20.7422 28.0547 20.8516 28.2734 20.8516H32.8125C33.0859 20.8516 33.25 20.6875 33.3047 20.5781C33.3594 20.5234 33.4688 20.3047 33.3047 20.0312C33.0859 19.6484 32.8672 19.2109 32.5938 18.7188C32.0469 17.7344 30.4063 15.9844 29.2031 14.6719C28 13.3594 27.5625 12.9219 27.4531 12.6484C27.125 11.8281 27.6172 11.1719 29.2031 8.98438C30.625 7.01563 31.9922 4.33594 32.1563 4.00781L32.5938 2.85938C32.6484 2.69531 32.6484 2.47656 32.5391 2.36719C32.4297 2.20313 32.2656 2.14844 32.1016 2.14844H28.0547C27.8359 2.14844 27.6172 2.25781 27.5625 2.47656L27.0156 3.78906C25.8125 6.14063 24.0625 9.25781 22.3672 10.9531C21.6563 11.6641 21 11.8828 20.4531 11.7188C19.7969 11.5 19.6328 10.7891 19.6328 10.7344C19.6328 10.6797 19.6328 10.6797 19.6328 10.625V2.69531C19.6328 2.36719 19.3594 2.14844 19.0859 2.14844H12.7422L13.8359 3.73438C14.5469 4.88281 14.5469 6.90625 14.4922 8.49219C14.4922 8.76563 14.4922 8.98438 14.4922 9.20313C14.4922 9.47656 14.4922 9.80469 14.4922 10.0781C14.5469 11.6094 14.5469 13.0313 13.5625 13.25C12.4688 13.4688 11.3203 12.3203 9.46094 9.3125C8.20313 7.17969 7.10938 4.17188 6.5625 2.53125C6.50782 2.3125 6.28907 2.14844 6.01563 2.14844H2.1875C2.02344 2.14844 1.85938 2.20313 1.75 2.36719C1.64063 2.47656 1.64063 2.64063 1.64063 2.80469C2.02344 4.82813 3.28125 8.38281 7 13.9609C11.5391 20.7422 17.2813 20.8516 17.3359 20.8516H18.4297C19.3594 20.8516 20.0703 20.0859 20.0703 19.2109V16.3125C20.0703 16.2578 20.0703 15.4922 20.6719 15.1094C20.8906 15 21.1094 14.9453 21.3281 14.9453Z" fill="#CDBD4B"/>
</svg>
